<?xml version="1.0" encoding="utf-8"?>

<!DOCTYPE svg PUBLIC "-//W3C//DTD SVG 1.1//EN" "http://www.w3.org/Graphics/SVG/1.1/DTD/svg11.dtd">
<!-- Uploaded to: SVG Repo, www.svgrepo.com, Generator: SVG Repo Mixer Tools -->
<svg height="800px" width="800px" version="1.1" id="_x32_" xmlns="http://www.w3.org/2000/svg" xmlns:xlink="http://www.w3.org/1999/xlink"
	 viewBox="0 0 512 512"  xml:space="preserve">
<style type="text/css">
	.st0{fill:#FFFF00;}
</style>
<g>
	<path class="st0" d="M180.365,271.776c-39.859-0.008-76.916-5.275-107.957-14.441c-31.032-9.206-56.113-22.114-72.078-38.516
		L0,218.456v112.696c0.008,8.671,3.948,17.392,12.463,26.235c8.473,8.779,21.405,17.219,37.774,24.356
		c19.056,8.34,42.794,14.852,69.309,18.89v-70.001h16.88v72.178c12.008,1.286,24.463,2.044,37.28,2.242v-40.239h16.88v40.388h37.271
		v-74.568h16.88v74.568h37.271v-40.388h16.88v40.388h37.28v-74.568h16.88v74.568h37.28v-40.388h16.88v40.388h37.271v-74.568h16.88
		v74.568H512V271.776H180.365z"/>
	<path class="st0" d="M295.774,254.896h64.948v-36.439l-0.33,0.362c-10.64,10.963-25.353,20.292-43.148,28.082
		C310.56,249.818,303.298,252.438,295.774,254.896z"/>
	<path class="st0" d="M50.237,231.438c32.738,14.324,78.993,23.474,130.128,23.458c38.352,0,73.942-5.11,103.169-13.748
		c29.235-8.58,52.033-20.87,64.726-34.066c8.514-8.843,12.454-17.564,12.462-26.235c-0.008-8.679-3.948-17.391-12.462-26.235
		c-8.473-8.778-21.405-17.218-37.774-24.356c-32.738-14.334-78.993-23.482-130.12-23.457c-38.351-0.008-73.949,5.11-103.176,13.74
		c-29.234,8.58-52.033,20.87-64.726,34.073C3.948,163.456,0.008,172.168,0,180.847c0.008,8.671,3.948,17.392,12.463,26.235
		C20.936,215.86,33.868,224.3,50.237,231.438z M121.879,174.814c3.684-3.898,11.431-8.258,21.71-11.242
		c10.27-3.034,23.021-4.888,36.776-4.88c18.331-0.024,34.898,3.314,46.149,8.258c5.621,2.44,9.866,5.292,12.322,7.864
		c2.505,2.629,3.124,4.516,3.132,6.033c-0.008,1.508-0.627,3.404-3.132,6.034c-3.676,3.89-11.424,8.259-21.702,11.242
		c-10.27,3.033-23.013,4.879-36.769,4.879c-18.338,0.017-34.906-3.314-46.156-8.259c-5.621-2.44-9.866-5.291-12.33-7.863
		c-2.506-2.63-3.116-4.526-3.125-6.034C118.763,179.33,119.373,177.443,121.879,174.814z"/>
</g>
</svg>
